<svg width="104" height="104" viewBox="0 0 104 104" fill="none" xmlns="http://www.w3.org/2000/svg">
<rect width="104" height="104" rx="8" fill="#5A6ED5"/>
<path d="M32.3389 52.883L40.8391 36.0255C43.4627 30.5259 49.2135 18.5225 51.2284 14.5054C53.2432 10.4883 57.21 11.636 57.21 15.5814V40.3295C57.21 43.1989 58.4693 44.6336 60.3583 44.6336H68.8586C72.6364 44.6336 72.3409 48.2202 71.3771 50.3723C65.7103 62.2083 55.3735 83.7285 52.8025 88.7499C50.2314 93.7712 46.8208 92.3365 46.8208 88.7499V63.2844C46.8208 58.9803 45.088 58.263 43.6726 58.263H35.802C31.5203 58.263 31.7092 54.6763 32.3389 52.883Z" fill="#EBCF4D"/>
</svg>
